<svg xmlns="http://www.w3.org/2000/svg" width="290.08" height="60.96" viewBox="0 0 290.08 60.96">
  <g id="Raggruppa_8" data-name="Raggruppa 8" transform="translate(-175 -59)">
    <g id="Raggruppa_3" data-name="Raggruppa 3" transform="translate(10 16)">
      <path id="Tracciato_1" data-name="Tracciato 1" d="M352.045,205.275c4.224,8.852,10.334,16.269,16.989,23.272,3.758,3.955,4.376,8,1.886,11.936-3.243,5.125-11.587,5.51-15.562.928-7.186-8.281-7.964-17.978-6.293-28.229a83.326,83.326,0,0,1,2.132-8.1C351.479,205.148,351.762,205.213,352.045,205.275Z" transform="translate(-183.323 -142.857)" fill="#1fa7da" fill-rule="evenodd"/>
      <path id="Tracciato_2" data-name="Tracciato 2" d="M361.7,242.516c6.042-8.974,9.018-18.407,11.951-27.858,1.522-4.9,5.769-8,9.9-6.719,4.932,1.536,8.561,5.019,7.784,11.273-.771,6.187-4.382,10.84-8.887,14.652a36.415,36.415,0,0,1-15.825,8.025C365.182,242.2,363.683,242.272,361.7,242.516Z" transform="translate(-166.446 -139.516)" fill="#73bfa6" fill-rule="evenodd"/>
      <path id="Tracciato_3" data-name="Tracciato 3" d="M393.368,212.573a85.744,85.744,0,0,0-28.384,3.3c-6.262,1.7-10.68-1.9-11.476-5.648-1.309-6.132,2.11-11.729,7.971-12.948,9.124-1.9,16.926,1.449,24.092,6.65,3.078,2.237,5.653,5.185,8.457,7.811Z" transform="translate(-177.136 -153.737)" fill="#957aca" fill-rule="evenodd"/>
    </g>
    <path id="Tracciato_4" data-name="Tracciato 4" d="M5.72,0A2.922,2.922,0,0,1,3.56-.76,2.922,2.922,0,0,1,2.8-2.92v-22.4a3.027,3.027,0,0,1,.84-2.24,3.081,3.081,0,0,1,2.28-.84,3.081,3.081,0,0,1,2.28.84,3.027,3.027,0,0,1,.84,2.24V-5.08H19.28q2.92,0,2.92,2.56Q22.2,0,19.28,0ZM27.88.24A3.28,3.28,0,0,1,25.7-.48a2.608,2.608,0,0,1-.86-2.12V-17.2a2.579,2.579,0,0,1,.88-2.12,3.3,3.3,0,0,1,2.16-.72,3.22,3.22,0,0,1,2.14.72,2.608,2.608,0,0,1,.86,2.12V-2.6a2.608,2.608,0,0,1-.86,2.12A3.22,3.22,0,0,1,27.88.24Zm0-23.48a3.652,3.652,0,0,1-2.52-.82,2.824,2.824,0,0,1-.92-2.22,2.763,2.763,0,0,1,.92-2.2,3.711,3.711,0,0,1,2.52-.8,3.668,3.668,0,0,1,2.5.82,2.75,2.75,0,0,1,.94,2.18,2.824,2.824,0,0,1-.92,2.22A3.652,3.652,0,0,1,27.88-23.24ZM44.6.32A10.964,10.964,0,0,1,39.28-.92a8.482,8.482,0,0,1-3.5-3.52A11.2,11.2,0,0,1,34.56-9.8a10.976,10.976,0,0,1,1.3-5.42,9.026,9.026,0,0,1,3.66-3.62,11.23,11.23,0,0,1,5.44-1.28,12.242,12.242,0,0,1,3.22.44,10.754,10.754,0,0,1,2.9,1.24,2.465,2.465,0,0,1,1.24,2.24,2.819,2.819,0,0,1-.48,1.7,1.506,1.506,0,0,1-1.28.66,2.665,2.665,0,0,1-.98-.18q-.46-.18-1.22-.54a12.52,12.52,0,0,0-1.5-.68,4.371,4.371,0,0,0-1.5-.24,4.194,4.194,0,0,0-3.42,1.42,6.333,6.333,0,0,0-1.18,4.14,6.418,6.418,0,0,0,1.18,4.16,4.166,4.166,0,0,0,3.42,1.44,4.549,4.549,0,0,0,1.48-.22,11.807,11.807,0,0,0,1.56-.7q.76-.36,1.2-.54a2.511,2.511,0,0,1,.96-.18,1.509,1.509,0,0,1,1.26.68,2.827,2.827,0,0,1,.5,1.72,2.375,2.375,0,0,1-1.24,2.2A10.63,10.63,0,0,1,48.12-.12,13.839,13.839,0,0,1,44.6.32ZM58.32.24a3.28,3.28,0,0,1-2.18-.72,2.608,2.608,0,0,1-.86-2.12V-17.2a2.579,2.579,0,0,1,.88-2.12,3.3,3.3,0,0,1,2.16-.72,3.22,3.22,0,0,1,2.14.72,2.608,2.608,0,0,1,.86,2.12V-2.6a2.608,2.608,0,0,1-.86,2.12A3.22,3.22,0,0,1,58.32.24Zm0-23.48a3.652,3.652,0,0,1-2.52-.82,2.824,2.824,0,0,1-.92-2.22,2.763,2.763,0,0,1,.92-2.2,3.711,3.711,0,0,1,2.52-.8,3.668,3.668,0,0,1,2.5.82,2.75,2.75,0,0,1,.94,2.18,2.824,2.824,0,0,1-.92,2.22A3.652,3.652,0,0,1,58.32-23.24ZM74.8-20.12q4.32,0,6.4,2.1t2.08,6.42v9.04A2.742,2.742,0,0,1,82.52-.5,2.911,2.911,0,0,1,80.4.24a2.785,2.785,0,0,1-2.06-.78,2.733,2.733,0,0,1-.78-2.02v-.28a4.71,4.71,0,0,1-2,2.32,6.253,6.253,0,0,1-3.28.84,8.064,8.064,0,0,1-3.62-.8A6.34,6.34,0,0,1,66.1-2.72a5.73,5.73,0,0,1-.94-3.2,4.942,4.942,0,0,1,1.1-3.4,6.573,6.573,0,0,1,3.54-1.8,31.269,31.269,0,0,1,6.68-.56h1.04v-.72a3.4,3.4,0,0,0-.74-2.44,3.334,3.334,0,0,0-2.46-.76,15.725,15.725,0,0,0-4.96,1.2,3.771,3.771,0,0,1-1.56.44,1.733,1.733,0,0,1-1.4-.62,2.436,2.436,0,0,1-.52-1.62,2.267,2.267,0,0,1,.36-1.32,3.326,3.326,0,0,1,1.16-.96,12.957,12.957,0,0,1,3.42-1.2A18.663,18.663,0,0,1,74.8-20.12ZM73.6-3.84a3.668,3.668,0,0,0,2.84-1.18,4.355,4.355,0,0,0,1.08-3.06v-.68h-.68a13.668,13.668,0,0,0-4.54.52A1.882,1.882,0,0,0,71-6.36a2.391,2.391,0,0,0,.74,1.82A2.6,2.6,0,0,0,73.6-3.84Zm52.12.04a3.214,3.214,0,0,1,.32,1.28,2.424,2.424,0,0,1-.9,1.9,3.056,3.056,0,0,1-2.06.78,2.7,2.7,0,0,1-1.44-.42,2.657,2.657,0,0,1-1.04-1.26l-2.12-4.72H104.92L102.8-1.52a2.7,2.7,0,0,1-1.02,1.26,2.664,2.664,0,0,1-1.46.42,3.13,3.13,0,0,1-2.08-.78,2.4,2.4,0,0,1-.92-1.9,3.214,3.214,0,0,1,.32-1.28l10.8-22.68a3.13,3.13,0,0,1,1.32-1.46,3.745,3.745,0,0,1,1.88-.5,3.706,3.706,0,0,1,1.92.52,3.54,3.54,0,0,1,1.36,1.44Zm-18.68-7.16h9.32l-4.64-10.4Zm32.28,6.8a2.812,2.812,0,0,1,1.76.6,1.973,1.973,0,0,1,.56,1.52,1.969,1.969,0,0,1-.92,1.76,4.274,4.274,0,0,1-2.64.48L136.96.12q-7-.56-7-7.32v-7.92h-1.6a3.008,3.008,0,0,1-2-.58,2.062,2.062,0,0,1-.68-1.66,2.11,2.11,0,0,1,.68-1.7,3.008,3.008,0,0,1,2-.58h1.6v-3.12a2.7,2.7,0,0,1,.82-2.08A3.137,3.137,0,0,1,133-25.6a3.064,3.064,0,0,1,2.2.76,2.732,2.732,0,0,1,.8,2.08v3.12h2.8q2.72,0,2.72,2.28a2.062,2.062,0,0,1-.68,1.66,3.078,3.078,0,0,1-2.04.58H136v8.36a2.632,2.632,0,0,0,.56,1.82,2.344,2.344,0,0,0,1.64.7Zm19.52-.36q2.72,0,2.72,2.28,0,2.24-2.72,2.24H145.88a2.653,2.653,0,0,1-1.96-.76,2.46,2.46,0,0,1-.76-1.8A2.912,2.912,0,0,1,144-4.64l9.36-10.48h-7.68q-2.72,0-2.72-2.24,0-2.28,2.72-2.28h12.48a2.637,2.637,0,0,1,1.98.76,2.541,2.541,0,0,1,.74,1.84,2.912,2.912,0,0,1-.84,2.08L150.72-4.52ZM173.48.32A11.463,11.463,0,0,1,168-.94a8.836,8.836,0,0,1-3.64-3.56,10.97,10.97,0,0,1-1.28-5.42,10.97,10.97,0,0,1,1.28-5.42A8.71,8.71,0,0,1,168-18.88a11.614,11.614,0,0,1,5.48-1.24,11.614,11.614,0,0,1,5.48,1.24,8.71,8.71,0,0,1,3.64,3.54,10.97,10.97,0,0,1,1.28,5.42A10.97,10.97,0,0,1,182.6-4.5a8.836,8.836,0,0,1-3.64,3.56A11.463,11.463,0,0,1,173.48.32Zm0-4.6q4.4,0,4.4-5.64a6.624,6.624,0,0,0-1.14-4.24,3.963,3.963,0,0,0-3.26-1.4q-4.4,0-4.4,5.64T173.48-4.28Zm25.8-15.76a2.5,2.5,0,0,1,1.9.54,2.355,2.355,0,0,1,.7,1.86,2.668,2.668,0,0,1-.64,1.96,3.728,3.728,0,0,1-2.28.8l-1.2.12a4.552,4.552,0,0,0-3.18,1.44,4.712,4.712,0,0,0-.98,3.08V-2.6a2.608,2.608,0,0,1-.86,2.12,3.22,3.22,0,0,1-2.14.72,3.28,3.28,0,0,1-2.18-.72,2.608,2.608,0,0,1-.86-2.12V-17.28a2.487,2.487,0,0,1,.88-2.04,3.241,3.241,0,0,1,2.12-.72,2.928,2.928,0,0,1,2,.7,2.443,2.443,0,0,1,.8,1.94v1.08a5.56,5.56,0,0,1,2.18-2.64A6.759,6.759,0,0,1,198.72-20ZM206.64.24a3.28,3.28,0,0,1-2.18-.72,2.608,2.608,0,0,1-.86-2.12V-17.2a2.58,2.58,0,0,1,.88-2.12,3.3,3.3,0,0,1,2.16-.72,3.22,3.22,0,0,1,2.14.72,2.608,2.608,0,0,1,.86,2.12V-2.6a2.608,2.608,0,0,1-.86,2.12A3.22,3.22,0,0,1,206.64.24Zm0-23.48a3.652,3.652,0,0,1-2.52-.82,2.824,2.824,0,0,1-.92-2.22,2.763,2.763,0,0,1,.92-2.2,3.711,3.711,0,0,1,2.52-.8,3.668,3.668,0,0,1,2.5.82,2.75,2.75,0,0,1,.94,2.18,2.824,2.824,0,0,1-.92,2.22A3.652,3.652,0,0,1,206.64-23.24Z" transform="translate(255 93)" fill="#343a40"/>
    <path id="Tracciato_5" data-name="Tracciato 5" d="M6.3.144a5.764,5.764,0,0,1-2.92-.712A4.812,4.812,0,0,1,1.472-2.584,6.6,6.6,0,0,1,.8-5.648a6.6,6.6,0,0,1,.672-3.064A4.762,4.762,0,0,1,3.384-10.72a5.816,5.816,0,0,1,2.92-.7,5.816,5.816,0,0,1,2.92.7,4.762,4.762,0,0,1,1.912,2.008,6.6,6.6,0,0,1,.672,3.064,6.6,6.6,0,0,1-.672,3.064A4.812,4.812,0,0,1,9.224-.568,5.764,5.764,0,0,1,6.3.144Zm0-1.936A2.7,2.7,0,0,0,8.52-2.784a4.437,4.437,0,0,0,.808-2.864,4.434,4.434,0,0,0-.8-2.856A2.707,2.707,0,0,0,6.3-9.488,2.685,2.685,0,0,0,4.088-8.5,4.466,4.466,0,0,0,3.3-5.648a4.468,4.468,0,0,0,.8,2.864A2.681,2.681,0,0,0,6.3-1.792Zm12.08-6.256a3.206,3.206,0,0,1,1.8.52,3.45,3.45,0,0,1,1.232,1.456,5,5,0,0,1,.44,2.152,4.9,4.9,0,0,1-.44,2.136A3.324,3.324,0,0,1,20.192-.368a3.309,3.309,0,0,1-1.808.5A3.16,3.16,0,0,1,16.936-.2a2.388,2.388,0,0,1-1-.92V1.9a.983.983,0,0,1-.32.768,1.22,1.22,0,0,1-.848.288,1.315,1.315,0,0,1-.9-.3,1.016,1.016,0,0,1-.344-.8V-6.88a1.085,1.085,0,0,1,.328-.824,1.213,1.213,0,0,1,.872-.312,1.185,1.185,0,0,1,.864.312,1.1,1.1,0,0,1,.32.824v.128A2.449,2.449,0,0,1,16.912-7.7,3.121,3.121,0,0,1,18.384-8.048Zm-.7,6.336a1.6,1.6,0,0,0,1.312-.568,2.535,2.535,0,0,0,.464-1.64,2.7,2.7,0,0,0-.464-1.688,1.562,1.562,0,0,0-1.312-.6,1.579,1.579,0,0,0-1.312.584A2.633,2.633,0,0,0,15.9-3.952,2.6,2.6,0,0,0,16.368-2.3,1.579,1.579,0,0,0,17.68-1.712Zm11.952-.624a.63.63,0,0,1,.52.256,1.034,1.034,0,0,1,.2.656.87.87,0,0,1-.16.5,1.3,1.3,0,0,1-.448.392,5.732,5.732,0,0,1-1.264.472,5.392,5.392,0,0,1-1.328.184,4.766,4.766,0,0,1-2.232-.5,3.473,3.473,0,0,1-1.464-1.416,4.388,4.388,0,0,1-.512-2.168,4.445,4.445,0,0,1,.5-2.128,3.636,3.636,0,0,1,1.376-1.448,3.856,3.856,0,0,1,2-.52,3.659,3.659,0,0,1,1.88.472,3.222,3.222,0,0,1,1.256,1.344,4.407,4.407,0,0,1,.448,2.04.769.769,0,0,1-.168.536.607.607,0,0,1-.472.184H25.28A2.133,2.133,0,0,0,25.856-2.1a1.9,1.9,0,0,0,1.328.424,2.855,2.855,0,0,0,.832-.112,8.038,8.038,0,0,0,.816-.3q.224-.1.432-.168A1.144,1.144,0,0,1,29.632-2.336ZM26.88-6.384a1.448,1.448,0,0,0-1.1.44,2.088,2.088,0,0,0-.5,1.272h3.088a2.088,2.088,0,0,0-.424-1.28A1.335,1.335,0,0,0,26.88-6.384Zm9.664-1.632a1,1,0,0,1,.76.216.942.942,0,0,1,.28.744,1.067,1.067,0,0,1-.256.784,1.491,1.491,0,0,1-.912.32l-.48.048a1.821,1.821,0,0,0-1.272.576A1.885,1.885,0,0,0,34.272-4.1V-1.04a1.043,1.043,0,0,1-.344.848A1.288,1.288,0,0,1,33.072.1,1.312,1.312,0,0,1,32.2-.192a1.043,1.043,0,0,1-.344-.848V-6.912a1,1,0,0,1,.352-.816,1.3,1.3,0,0,1,.848-.288,1.171,1.171,0,0,1,.8.28.977.977,0,0,1,.32.776v.432a2.224,2.224,0,0,1,.872-1.056A2.7,2.7,0,0,1,36.32-8Zm5.264-.032a3.466,3.466,0,0,1,2.56.84A3.516,3.516,0,0,1,45.2-4.64v3.616a1.1,1.1,0,0,1-.3.824,1.164,1.164,0,0,1-.848.3,1.114,1.114,0,0,1-.824-.312,1.093,1.093,0,0,1-.312-.808v-.112a1.884,1.884,0,0,1-.8.928A2.5,2.5,0,0,1,40.8.128a3.226,3.226,0,0,1-1.448-.32,2.536,2.536,0,0,1-1.024-.9,2.292,2.292,0,0,1-.376-1.28,1.977,1.977,0,0,1,.44-1.36,2.629,2.629,0,0,1,1.416-.72,12.508,12.508,0,0,1,2.672-.224H42.9V-4.96a1.361,1.361,0,0,0-.3-.976,1.333,1.333,0,0,0-.984-.3,6.29,6.29,0,0,0-1.984.48,1.508,1.508,0,0,1-.624.176.693.693,0,0,1-.56-.248.975.975,0,0,1-.208-.648.907.907,0,0,1,.144-.528,1.33,1.33,0,0,1,.464-.384,5.183,5.183,0,0,1,1.368-.48A7.465,7.465,0,0,1,41.808-8.048Zm-.48,6.512a1.467,1.467,0,0,0,1.136-.472A1.742,1.742,0,0,0,42.9-3.232V-3.5h-.272a5.467,5.467,0,0,0-1.816.208.753.753,0,0,0-.52.752.957.957,0,0,0,.3.728A1.04,1.04,0,0,0,41.328-1.536Zm10.048-.128a1.125,1.125,0,0,1,.7.24.789.789,0,0,1,.224.608.787.787,0,0,1-.368.7A1.71,1.71,0,0,1,50.88.08L50.432.048a2.662,2.662,0,0,1-2.8-2.928V-6.048h-.64a1.2,1.2,0,0,1-.8-.232.825.825,0,0,1-.272-.664.844.844,0,0,1,.272-.68,1.2,1.2,0,0,1,.8-.232h.64V-9.1a1.079,1.079,0,0,1,.328-.832,1.255,1.255,0,0,1,.888-.3,1.226,1.226,0,0,1,.88.3,1.093,1.093,0,0,1,.32.832v1.248h1.12q1.088,0,1.088.912a.825.825,0,0,1-.272.664,1.231,1.231,0,0,1-.816.232h-1.12V-2.7a1.053,1.053,0,0,0,.224.728.938.938,0,0,0,.656.28Zm6.512-6.352a1,1,0,0,1,.76.216.942.942,0,0,1,.28.744,1.067,1.067,0,0,1-.256.784,1.491,1.491,0,0,1-.912.32l-.48.048a1.821,1.821,0,0,0-1.272.576A1.885,1.885,0,0,0,55.616-4.1V-1.04a1.043,1.043,0,0,1-.344.848A1.288,1.288,0,0,1,54.416.1a1.312,1.312,0,0,1-.872-.288A1.043,1.043,0,0,1,53.2-1.04V-6.912a1,1,0,0,1,.352-.816,1.3,1.3,0,0,1,.848-.288,1.171,1.171,0,0,1,.8.28.977.977,0,0,1,.32.776v.432a2.224,2.224,0,0,1,.872-1.056A2.7,2.7,0,0,1,57.664-8ZM60.832.1a1.312,1.312,0,0,1-.872-.288,1.043,1.043,0,0,1-.344-.848V-6.88a1.032,1.032,0,0,1,.352-.848,1.32,1.32,0,0,1,.864-.288,1.288,1.288,0,0,1,.856.288,1.043,1.043,0,0,1,.344.848v5.84a1.043,1.043,0,0,1-.344.848A1.288,1.288,0,0,1,60.832.1Zm0-9.392a1.461,1.461,0,0,1-1.008-.328,1.13,1.13,0,0,1-.368-.888,1.105,1.105,0,0,1,.368-.88,1.484,1.484,0,0,1,1.008-.32,1.467,1.467,0,0,1,1,.328,1.1,1.1,0,0,1,.376.872,1.13,1.13,0,0,1-.368.888A1.461,1.461,0,0,1,60.832-9.3ZM67.52.128a4.386,4.386,0,0,1-2.128-.5,3.393,3.393,0,0,1-1.4-1.408A4.48,4.48,0,0,1,63.5-3.92a4.391,4.391,0,0,1,.52-2.168,3.611,3.611,0,0,1,1.464-1.448,4.492,4.492,0,0,1,2.176-.512,4.9,4.9,0,0,1,1.288.176,4.3,4.3,0,0,1,1.16.5.986.986,0,0,1,.5.9,1.128,1.128,0,0,1-.192.68.6.6,0,0,1-.512.264,1.066,1.066,0,0,1-.392-.072q-.184-.072-.488-.216a5.008,5.008,0,0,0-.6-.272,1.748,1.748,0,0,0-.6-.1,1.677,1.677,0,0,0-1.368.568,2.533,2.533,0,0,0-.472,1.656A2.567,2.567,0,0,0,66.456-2.3a1.667,1.667,0,0,0,1.368.576,1.82,1.82,0,0,0,.592-.088,4.722,4.722,0,0,0,.624-.28q.3-.144.48-.216a1,1,0,0,1,.384-.072.6.6,0,0,1,.5.272,1.131,1.131,0,0,1,.2.688.95.95,0,0,1-.5.88,4.252,4.252,0,0,1-1.184.5A5.535,5.535,0,0,1,67.52.128ZM78.1-2.336a.63.63,0,0,1,.52.256,1.034,1.034,0,0,1,.2.656.87.87,0,0,1-.16.5,1.3,1.3,0,0,1-.448.392,5.732,5.732,0,0,1-1.264.472,5.392,5.392,0,0,1-1.328.184,4.766,4.766,0,0,1-2.232-.5A3.473,3.473,0,0,1,71.92-1.784a4.388,4.388,0,0,1-.512-2.168,4.445,4.445,0,0,1,.5-2.128A3.636,3.636,0,0,1,73.28-7.528a3.856,3.856,0,0,1,2-.52,3.659,3.659,0,0,1,1.88.472,3.222,3.222,0,0,1,1.256,1.344,4.407,4.407,0,0,1,.448,2.04.769.769,0,0,1-.168.536.607.607,0,0,1-.472.184h-4.48A2.133,2.133,0,0,0,74.32-2.1a1.9,1.9,0,0,0,1.328.424,2.855,2.855,0,0,0,.832-.112,8.038,8.038,0,0,0,.816-.3q.224-.1.432-.168A1.144,1.144,0,0,1,78.1-2.336ZM75.344-6.384a1.448,1.448,0,0,0-1.1.44,2.088,2.088,0,0,0-.5,1.272h3.088a2.088,2.088,0,0,0-.424-1.28A1.335,1.335,0,0,0,75.344-6.384ZM91.488-11.36a1.315,1.315,0,0,1,.9.3,1.016,1.016,0,0,1,.344.8V-1.04a1.085,1.085,0,0,1-.328.824A1.213,1.213,0,0,1,91.536.1a1.213,1.213,0,0,1-.872-.312,1.085,1.085,0,0,1-.328-.824v-.128a2.46,2.46,0,0,1-1,.952,3.074,3.074,0,0,1-1.464.344,3.206,3.206,0,0,1-1.8-.52A3.45,3.45,0,0,1,84.84-1.848,5,5,0,0,1,84.4-4a4.9,4.9,0,0,1,.44-2.136,3.324,3.324,0,0,1,1.224-1.416,3.309,3.309,0,0,1,1.808-.5,3.1,3.1,0,0,1,1.448.336,2.408,2.408,0,0,1,1,.944V-10.3a.983.983,0,0,1,.32-.768A1.22,1.22,0,0,1,91.488-11.36ZM88.576-1.712a1.557,1.557,0,0,0,1.3-.584,2.667,2.667,0,0,0,.456-1.672,2.631,2.631,0,0,0-.456-1.664,1.566,1.566,0,0,0-1.3-.576,1.6,1.6,0,0,0-1.312.568A2.535,2.535,0,0,0,86.8-4a2.7,2.7,0,0,0,.464,1.688A1.562,1.562,0,0,0,88.576-1.712Zm12.32-.624a.63.63,0,0,1,.52.256,1.034,1.034,0,0,1,.2.656.87.87,0,0,1-.16.5,1.3,1.3,0,0,1-.448.392,5.732,5.732,0,0,1-1.264.472,5.392,5.392,0,0,1-1.328.184,4.766,4.766,0,0,1-2.232-.5A3.473,3.473,0,0,1,94.72-1.784a4.388,4.388,0,0,1-.512-2.168,4.445,4.445,0,0,1,.5-2.128A3.636,3.636,0,0,1,96.08-7.528a3.856,3.856,0,0,1,2-.52,3.659,3.659,0,0,1,1.88.472,3.222,3.222,0,0,1,1.256,1.344,4.407,4.407,0,0,1,.448,2.04.769.769,0,0,1-.168.536.607.607,0,0,1-.472.184h-4.48A2.133,2.133,0,0,0,97.12-2.1a1.9,1.9,0,0,0,1.328.424,2.855,2.855,0,0,0,.832-.112,8.038,8.038,0,0,0,.816-.3q.224-.1.432-.168A1.144,1.144,0,0,1,100.9-2.336ZM98.144-6.384a1.448,1.448,0,0,0-1.1.44,2.088,2.088,0,0,0-.5,1.272h3.088a2.088,2.088,0,0,0-.424-1.28A1.335,1.335,0,0,0,98.144-6.384ZM104.336.1a1.312,1.312,0,0,1-.872-.288,1.043,1.043,0,0,1-.344-.848v-9.184a1.043,1.043,0,0,1,.344-.848,1.312,1.312,0,0,1,.872-.288,1.288,1.288,0,0,1,.856.288,1.043,1.043,0,0,1,.344.848V-1.04a1.043,1.043,0,0,1-.344.848A1.288,1.288,0,0,1,104.336.1ZM119.3-5.84a2.826,2.826,0,0,1,1.512,1,2.829,2.829,0,0,1,.536,1.752A2.728,2.728,0,0,1,120.3-.832,4.528,4.528,0,0,1,117.408,0h-4.192a1.169,1.169,0,0,1-.864-.3,1.169,1.169,0,0,1-.3-.864v-8.944a1.169,1.169,0,0,1,.3-.864,1.169,1.169,0,0,1,.864-.3h4.032a4.508,4.508,0,0,1,2.792.784,2.547,2.547,0,0,1,1.032,2.144,2.6,2.6,0,0,1-.472,1.544A2.68,2.68,0,0,1,119.3-5.84Zm-4.816-.848h2.352a2.444,2.444,0,0,0,1.416-.328,1.15,1.15,0,0,0,.456-1,1.185,1.185,0,0,0-.456-1.032,2.444,2.444,0,0,0-1.416-.328H114.48ZM117.12-1.9a2.427,2.427,0,0,0,1.44-.336,1.272,1.272,0,0,0,.448-1.088,1.318,1.318,0,0,0-.448-1.1,2.341,2.341,0,0,0-1.44-.352h-2.64V-1.9Zm12.064-.432a.63.63,0,0,1,.52.256,1.034,1.034,0,0,1,.2.656.87.87,0,0,1-.16.5,1.3,1.3,0,0,1-.448.392,5.732,5.732,0,0,1-1.264.472A5.392,5.392,0,0,1,126.7.128a4.766,4.766,0,0,1-2.232-.5,3.473,3.473,0,0,1-1.464-1.416,4.388,4.388,0,0,1-.512-2.168,4.445,4.445,0,0,1,.5-2.128,3.636,3.636,0,0,1,1.376-1.448,3.856,3.856,0,0,1,2-.52,3.659,3.659,0,0,1,1.88.472A3.222,3.222,0,0,1,129.5-6.232a4.407,4.407,0,0,1,.448,2.04.769.769,0,0,1-.168.536.607.607,0,0,1-.472.184h-4.48a2.133,2.133,0,0,0,.576,1.368,1.9,1.9,0,0,0,1.328.424,2.855,2.855,0,0,0,.832-.112,8.037,8.037,0,0,0,.816-.3q.224-.1.432-.168A1.144,1.144,0,0,1,129.184-2.336Zm-2.752-4.048a1.448,1.448,0,0,0-1.1.44,2.088,2.088,0,0,0-.5,1.272h3.088a2.088,2.088,0,0,0-.424-1.28A1.335,1.335,0,0,0,126.432-6.384Zm9.9-1.664a2.575,2.575,0,0,1,2.1.824,3.815,3.815,0,0,1,.688,2.488v3.7a1.079,1.079,0,0,1-.328.832,1.255,1.255,0,0,1-.888.3,1.226,1.226,0,0,1-.88-.3,1.093,1.093,0,0,1-.32-.832V-4.624a1.86,1.86,0,0,0-.3-1.168,1.11,1.11,0,0,0-.92-.368,1.589,1.589,0,0,0-1.208.48,1.782,1.782,0,0,0-.456,1.28v3.36a1.093,1.093,0,0,1-.32.832,1.226,1.226,0,0,1-.88.3,1.255,1.255,0,0,1-.888-.3,1.079,1.079,0,0,1-.328-.832V-6.912a1.016,1.016,0,0,1,.344-.8,1.291,1.291,0,0,1,.888-.3,1.126,1.126,0,0,1,.808.3,1,1,0,0,1,.312.76v.224a2.753,2.753,0,0,1,1.08-.976A3.266,3.266,0,0,1,136.336-8.048Zm10.9,5.712a.63.63,0,0,1,.52.256,1.034,1.034,0,0,1,.2.656.87.87,0,0,1-.16.5,1.3,1.3,0,0,1-.448.392,5.732,5.732,0,0,1-1.264.472,5.392,5.392,0,0,1-1.328.184,4.766,4.766,0,0,1-2.232-.5,3.473,3.473,0,0,1-1.464-1.416,4.388,4.388,0,0,1-.512-2.168,4.445,4.445,0,0,1,.5-2.128,3.636,3.636,0,0,1,1.376-1.448,3.856,3.856,0,0,1,2-.52,3.659,3.659,0,0,1,1.88.472,3.222,3.222,0,0,1,1.256,1.344A4.407,4.407,0,0,1,148-4.192a.769.769,0,0,1-.168.536.607.607,0,0,1-.472.184h-4.48a2.133,2.133,0,0,0,.576,1.368,1.9,1.9,0,0,0,1.328.424,2.855,2.855,0,0,0,.832-.112,8.039,8.039,0,0,0,.816-.3q.224-.1.432-.168A1.144,1.144,0,0,1,147.232-2.336ZM144.48-6.384a1.448,1.448,0,0,0-1.1.44,2.088,2.088,0,0,0-.5,1.272h3.088a2.088,2.088,0,0,0-.424-1.28A1.335,1.335,0,0,0,144.48-6.384ZM152.432.128a7.9,7.9,0,0,1-1.7-.16,3.837,3.837,0,0,1-1.264-.512.979.979,0,0,1-.368-.384,1.138,1.138,0,0,1-.128-.544.926.926,0,0,1,.208-.616.643.643,0,0,1,.512-.248,1.265,1.265,0,0,1,.416.072q.208.072.432.168a5.743,5.743,0,0,0,.88.328,4.071,4.071,0,0,0,1.072.12,1.79,1.79,0,0,0,.872-.176.535.535,0,0,0,.312-.48.487.487,0,0,0-.136-.36,1.25,1.25,0,0,0-.5-.248q-.368-.112-1.168-.272A4.406,4.406,0,0,1,149.824-4a1.91,1.91,0,0,1-.624-1.52,2.081,2.081,0,0,1,.44-1.3,2.926,2.926,0,0,1,1.208-.9,4.359,4.359,0,0,1,1.728-.328,5.164,5.164,0,0,1,1.344.176,4.283,4.283,0,0,1,1.168.5.986.986,0,0,1,.5.9.982.982,0,0,1-.208.64.636.636,0,0,1-.512.256,1.874,1.874,0,0,1-.88-.288,4.652,4.652,0,0,0-.728-.312,2.579,2.579,0,0,0-.776-.1,1.445,1.445,0,0,0-.784.184.57.57,0,0,0-.288.5.554.554,0,0,0,.336.512,5.259,5.259,0,0,0,1.3.352,7,7,0,0,1,1.68.5,2.026,2.026,0,0,1,.88.744,2.159,2.159,0,0,1,.272,1.136,2.115,2.115,0,0,1-.936,1.808A4.208,4.208,0,0,1,152.432.128Zm7.792,0a7.9,7.9,0,0,1-1.7-.16,3.837,3.837,0,0,1-1.264-.512.979.979,0,0,1-.368-.384,1.138,1.138,0,0,1-.128-.544.926.926,0,0,1,.208-.616.643.643,0,0,1,.512-.248,1.265,1.265,0,0,1,.416.072q.208.072.432.168a5.743,5.743,0,0,0,.88.328,4.071,4.071,0,0,0,1.072.12,1.79,1.79,0,0,0,.872-.176.535.535,0,0,0,.312-.48.487.487,0,0,0-.136-.36,1.25,1.25,0,0,0-.5-.248q-.368-.112-1.168-.272A4.406,4.406,0,0,1,157.616-4a1.91,1.91,0,0,1-.624-1.52,2.081,2.081,0,0,1,.44-1.3,2.926,2.926,0,0,1,1.208-.9,4.359,4.359,0,0,1,1.728-.328,5.164,5.164,0,0,1,1.344.176,4.283,4.283,0,0,1,1.168.5.986.986,0,0,1,.5.9.982.982,0,0,1-.208.64.636.636,0,0,1-.512.256,1.874,1.874,0,0,1-.88-.288,4.652,4.652,0,0,0-.728-.312,2.579,2.579,0,0,0-.776-.1,1.445,1.445,0,0,0-.784.184.57.57,0,0,0-.288.5.554.554,0,0,0,.336.512,5.259,5.259,0,0,0,1.3.352,7,7,0,0,1,1.68.5,2.026,2.026,0,0,1,.88.744,2.159,2.159,0,0,1,.272,1.136,2.115,2.115,0,0,1-.936,1.808A4.208,4.208,0,0,1,160.224.128Zm11.12-2.464a.63.63,0,0,1,.52.256,1.034,1.034,0,0,1,.2.656.87.87,0,0,1-.16.5,1.3,1.3,0,0,1-.448.392,5.732,5.732,0,0,1-1.264.472,5.392,5.392,0,0,1-1.328.184,4.766,4.766,0,0,1-2.232-.5,3.473,3.473,0,0,1-1.464-1.416,4.388,4.388,0,0,1-.512-2.168,4.445,4.445,0,0,1,.5-2.128,3.636,3.636,0,0,1,1.376-1.448,3.856,3.856,0,0,1,2-.52,3.659,3.659,0,0,1,1.88.472,3.222,3.222,0,0,1,1.256,1.344,4.407,4.407,0,0,1,.448,2.04.769.769,0,0,1-.168.536.607.607,0,0,1-.472.184h-4.48a2.133,2.133,0,0,0,.576,1.368,1.9,1.9,0,0,0,1.328.424,2.855,2.855,0,0,0,.832-.112,8.039,8.039,0,0,0,.816-.3q.224-.1.432-.168A1.144,1.144,0,0,1,171.344-2.336Zm-2.752-4.048a1.448,1.448,0,0,0-1.1.44,2.088,2.088,0,0,0-.5,1.272h3.088a2.088,2.088,0,0,0-.424-1.28A1.335,1.335,0,0,0,168.592-6.384Zm9.664-1.632a1,1,0,0,1,.76.216.942.942,0,0,1,.28.744,1.067,1.067,0,0,1-.256.784,1.491,1.491,0,0,1-.912.32l-.48.048a1.821,1.821,0,0,0-1.272.576,1.885,1.885,0,0,0-.392,1.232V-1.04a1.043,1.043,0,0,1-.344.848,1.288,1.288,0,0,1-.856.288,1.312,1.312,0,0,1-.872-.288,1.043,1.043,0,0,1-.344-.848V-6.912a1,1,0,0,1,.352-.816,1.3,1.3,0,0,1,.848-.288,1.171,1.171,0,0,1,.8.28.977.977,0,0,1,.32.776v.432a2.224,2.224,0,0,1,.872-1.056A2.7,2.7,0,0,1,178.032-8Zm7.872,5.68a.63.63,0,0,1,.52.256,1.034,1.034,0,0,1,.2.656.87.87,0,0,1-.16.5,1.3,1.3,0,0,1-.448.392,5.732,5.732,0,0,1-1.264.472,5.392,5.392,0,0,1-1.328.184,4.766,4.766,0,0,1-2.232-.5,3.473,3.473,0,0,1-1.464-1.416,4.388,4.388,0,0,1-.512-2.168,4.445,4.445,0,0,1,.5-2.128,3.636,3.636,0,0,1,1.376-1.448,3.856,3.856,0,0,1,2-.52,3.659,3.659,0,0,1,1.88.472,3.222,3.222,0,0,1,1.256,1.344,4.407,4.407,0,0,1,.448,2.04.769.769,0,0,1-.168.536.607.607,0,0,1-.472.184h-4.48a2.133,2.133,0,0,0,.576,1.368,1.9,1.9,0,0,0,1.328.424,2.855,2.855,0,0,0,.832-.112,8.039,8.039,0,0,0,.816-.3q.224-.1.432-.168A1.144,1.144,0,0,1,186.128-2.336Zm-2.752-4.048a1.448,1.448,0,0,0-1.1.44,2.088,2.088,0,0,0-.5,1.272h3.088a2.088,2.088,0,0,0-.424-1.28A1.335,1.335,0,0,0,183.376-6.384Z" transform="translate(255 117)" fill="#6c757d"/>
  </g>
</svg>
