<svg xmlns="http://www.w3.org/2000/svg" width="50" height="37.5" viewBox="0 0 50 37.5"><path d="M0,8.25A6.25,6.25,0,0,1,6.25,2h37.5A6.25,6.25,0,0,1,50,8.25v25a6.25,6.25,0,0,1-6.25,6.25H6.25A6.25,6.25,0,0,1,0,33.25ZM6.25,5.125A3.125,3.125,0,0,0,3.125,8.25v.678L25,22.053,46.875,8.928V8.25A3.125,3.125,0,0,0,43.75,5.125Zm40.625,7.447L32.006,21.494l14.869,8.988V12.575Zm-.106,21.494-17.8-10.753L25,25.7l-3.975-2.384L3.231,34.063A3.125,3.125,0,0,0,6.25,36.375h37.5A3.125,3.125,0,0,0,46.769,34.066ZM3.125,30.481l14.869-8.987L3.125,12.572V30.478Z" transform="translate(0 -2)" fill="#343a40" fill-rule="evenodd"/></svg>