<svg xmlns="http://www.w3.org/2000/svg" width="341.984" height="61.008" viewBox="0 0 341.984 61.008"><g transform="translate(-175 -58)"><g transform="translate(10 15)"><path d="M352.045,205.275c4.224,8.852,10.334,16.269,16.989,23.272,3.758,3.955,4.376,8,1.886,11.936-3.243,5.125-11.587,5.51-15.562.928-7.186-8.281-7.964-17.978-6.293-28.229a83.326,83.326,0,0,1,2.132-8.1C351.479,205.148,351.762,205.213,352.045,205.275Z" transform="translate(-183.323 -142.857)" fill="#1fa7da" fill-rule="evenodd"/><path d="M361.7,242.516c6.042-8.974,9.018-18.407,11.951-27.858,1.522-4.9,5.769-8,9.9-6.719,4.932,1.536,8.561,5.019,7.784,11.273-.771,6.187-4.382,10.84-8.887,14.652a36.415,36.415,0,0,1-15.825,8.025C365.182,242.2,363.683,242.272,361.7,242.516Z" transform="translate(-166.446 -139.516)" fill="#73bfa6" fill-rule="evenodd"/><path d="M393.368,212.573a85.744,85.744,0,0,0-28.384,3.3c-6.262,1.7-10.68-1.9-11.476-5.648-1.309-6.132,2.11-11.729,7.971-12.948,9.124-1.9,16.926,1.449,24.092,6.65,3.078,2.237,5.653,5.185,8.457,7.811Z" transform="translate(-177.136 -153.737)" fill="#957aca" fill-rule="evenodd"/></g><path d="M5.72,0A2.922,2.922,0,0,1,3.56-.76,2.922,2.922,0,0,1,2.8-2.92v-22.4a3.027,3.027,0,0,1,.84-2.24,3.081,3.081,0,0,1,2.28-.84,3.081,3.081,0,0,1,2.28.84,3.027,3.027,0,0,1,.84,2.24V-5.08H19.28q2.92,0,2.92,2.56Q22.2,0,19.28,0ZM27.88.24A3.28,3.28,0,0,1,25.7-.48a2.608,2.608,0,0,1-.86-2.12V-17.2a2.579,2.579,0,0,1,.88-2.12,3.3,3.3,0,0,1,2.16-.72,3.22,3.22,0,0,1,2.14.72,2.608,2.608,0,0,1,.86,2.12V-2.6a2.608,2.608,0,0,1-.86,2.12A3.22,3.22,0,0,1,27.88.24Zm0-23.48a3.652,3.652,0,0,1-2.52-.82,2.824,2.824,0,0,1-.92-2.22,2.763,2.763,0,0,1,.92-2.2,3.711,3.711,0,0,1,2.52-.8,3.668,3.668,0,0,1,2.5.82,2.75,2.75,0,0,1,.94,2.18,2.824,2.824,0,0,1-.92,2.22A3.652,3.652,0,0,1,27.88-23.24ZM44.6.32A10.964,10.964,0,0,1,39.28-.92a8.482,8.482,0,0,1-3.5-3.52A11.2,11.2,0,0,1,34.56-9.8a10.976,10.976,0,0,1,1.3-5.42,9.026,9.026,0,0,1,3.66-3.62,11.23,11.23,0,0,1,5.44-1.28,12.242,12.242,0,0,1,3.22.44,10.754,10.754,0,0,1,2.9,1.24,2.465,2.465,0,0,1,1.24,2.24,2.819,2.819,0,0,1-.48,1.7,1.506,1.506,0,0,1-1.28.66,2.665,2.665,0,0,1-.98-.18q-.46-.18-1.22-.54a12.52,12.52,0,0,0-1.5-.68,4.371,4.371,0,0,0-1.5-.24,4.194,4.194,0,0,0-3.42,1.42,6.333,6.333,0,0,0-1.18,4.14,6.418,6.418,0,0,0,1.18,4.16,4.166,4.166,0,0,0,3.42,1.44,4.549,4.549,0,0,0,1.48-.22,11.807,11.807,0,0,0,1.56-.7q.76-.36,1.2-.54a2.511,2.511,0,0,1,.96-.18,1.509,1.509,0,0,1,1.26.68,2.827,2.827,0,0,1,.5,1.72,2.375,2.375,0,0,1-1.24,2.2A10.63,10.63,0,0,1,48.12-.12,13.839,13.839,0,0,1,44.6.32ZM58.32.24a3.28,3.28,0,0,1-2.18-.72,2.608,2.608,0,0,1-.86-2.12V-17.2a2.579,2.579,0,0,1,.88-2.12,3.3,3.3,0,0,1,2.16-.72,3.22,3.22,0,0,1,2.14.72,2.608,2.608,0,0,1,.86,2.12V-2.6a2.608,2.608,0,0,1-.86,2.12A3.22,3.22,0,0,1,58.32.24Zm0-23.48a3.652,3.652,0,0,1-2.52-.82,2.824,2.824,0,0,1-.92-2.22,2.763,2.763,0,0,1,.92-2.2,3.711,3.711,0,0,1,2.52-.8,3.668,3.668,0,0,1,2.5.82,2.75,2.75,0,0,1,.94,2.18,2.824,2.824,0,0,1-.92,2.22A3.652,3.652,0,0,1,58.32-23.24ZM74.8-20.12q4.32,0,6.4,2.1t2.08,6.42v9.04A2.742,2.742,0,0,1,82.52-.5,2.911,2.911,0,0,1,80.4.24a2.785,2.785,0,0,1-2.06-.78,2.733,2.733,0,0,1-.78-2.02v-.28a4.71,4.71,0,0,1-2,2.32,6.253,6.253,0,0,1-3.28.84,8.064,8.064,0,0,1-3.62-.8A6.34,6.34,0,0,1,66.1-2.72a5.73,5.73,0,0,1-.94-3.2,4.942,4.942,0,0,1,1.1-3.4,6.573,6.573,0,0,1,3.54-1.8,31.269,31.269,0,0,1,6.68-.56h1.04v-.72a3.4,3.4,0,0,0-.74-2.44,3.334,3.334,0,0,0-2.46-.76,15.725,15.725,0,0,0-4.96,1.2,3.771,3.771,0,0,1-1.56.44,1.733,1.733,0,0,1-1.4-.62,2.436,2.436,0,0,1-.52-1.62,2.267,2.267,0,0,1,.36-1.32,3.326,3.326,0,0,1,1.16-.96,12.957,12.957,0,0,1,3.42-1.2A18.663,18.663,0,0,1,74.8-20.12ZM73.6-3.84a3.668,3.668,0,0,0,2.84-1.18,4.355,4.355,0,0,0,1.08-3.06v-.68h-.68a13.668,13.668,0,0,0-4.54.52A1.882,1.882,0,0,0,71-6.36a2.391,2.391,0,0,0,.74,1.82A2.6,2.6,0,0,0,73.6-3.84Zm52.12.04a3.214,3.214,0,0,1,.32,1.28,2.424,2.424,0,0,1-.9,1.9,3.056,3.056,0,0,1-2.06.78,2.7,2.7,0,0,1-1.44-.42,2.657,2.657,0,0,1-1.04-1.26l-2.12-4.72H104.92L102.8-1.52a2.7,2.7,0,0,1-1.02,1.26,2.664,2.664,0,0,1-1.46.42,3.13,3.13,0,0,1-2.08-.78,2.4,2.4,0,0,1-.92-1.9,3.214,3.214,0,0,1,.32-1.28l10.8-22.68a3.13,3.13,0,0,1,1.32-1.46,3.745,3.745,0,0,1,1.88-.5,3.706,3.706,0,0,1,1.92.52,3.54,3.54,0,0,1,1.36,1.44Zm-18.68-7.16h9.32l-4.64-10.4Zm32.28,6.8a2.812,2.812,0,0,1,1.76.6,1.973,1.973,0,0,1,.56,1.52,1.969,1.969,0,0,1-.92,1.76,4.274,4.274,0,0,1-2.64.48L136.96.12q-7-.56-7-7.32v-7.92h-1.6a3.008,3.008,0,0,1-2-.58,2.062,2.062,0,0,1-.68-1.66,2.11,2.11,0,0,1,.68-1.7,3.008,3.008,0,0,1,2-.58h1.6v-3.12a2.7,2.7,0,0,1,.82-2.08A3.137,3.137,0,0,1,133-25.6a3.064,3.064,0,0,1,2.2.76,2.732,2.732,0,0,1,.8,2.08v3.12h2.8q2.72,0,2.72,2.28a2.062,2.062,0,0,1-.68,1.66,3.078,3.078,0,0,1-2.04.58H136v8.36a2.632,2.632,0,0,0,.56,1.82,2.344,2.344,0,0,0,1.64.7Zm19.52-.36q2.72,0,2.72,2.28,0,2.24-2.72,2.24H145.88a2.653,2.653,0,0,1-1.96-.76,2.46,2.46,0,0,1-.76-1.8A2.912,2.912,0,0,1,144-4.64l9.36-10.48h-7.68q-2.72,0-2.72-2.24,0-2.28,2.72-2.28h12.48a2.637,2.637,0,0,1,1.98.76,2.541,2.541,0,0,1,.74,1.84,2.912,2.912,0,0,1-.84,2.08L150.72-4.52ZM173.48.32A11.463,11.463,0,0,1,168-.94a8.836,8.836,0,0,1-3.64-3.56,10.97,10.97,0,0,1-1.28-5.42,10.97,10.97,0,0,1,1.28-5.42A8.71,8.71,0,0,1,168-18.88a11.614,11.614,0,0,1,5.48-1.24,11.614,11.614,0,0,1,5.48,1.24,8.71,8.71,0,0,1,3.64,3.54,10.97,10.97,0,0,1,1.28,5.42A10.97,10.97,0,0,1,182.6-4.5a8.836,8.836,0,0,1-3.64,3.56A11.463,11.463,0,0,1,173.48.32Zm0-4.6q4.4,0,4.4-5.64a6.624,6.624,0,0,0-1.14-4.24,3.963,3.963,0,0,0-3.26-1.4q-4.4,0-4.4,5.64T173.48-4.28Zm25.8-15.76a2.5,2.5,0,0,1,1.9.54,2.355,2.355,0,0,1,.7,1.86,2.668,2.668,0,0,1-.64,1.96,3.728,3.728,0,0,1-2.28.8l-1.2.12a4.552,4.552,0,0,0-3.18,1.44,4.712,4.712,0,0,0-.98,3.08V-2.6a2.608,2.608,0,0,1-.86,2.12,3.22,3.22,0,0,1-2.14.72,3.28,3.28,0,0,1-2.18-.72,2.608,2.608,0,0,1-.86-2.12V-17.28a2.487,2.487,0,0,1,.88-2.04,3.241,3.241,0,0,1,2.12-.72,2.928,2.928,0,0,1,2,.7,2.443,2.443,0,0,1,.8,1.94v1.08a5.56,5.56,0,0,1,2.18-2.64A6.759,6.759,0,0,1,198.72-20ZM206.64.24a3.28,3.28,0,0,1-2.18-.72,2.608,2.608,0,0,1-.86-2.12V-17.2a2.58,2.58,0,0,1,.88-2.12,3.3,3.3,0,0,1,2.16-.72,3.22,3.22,0,0,1,2.14.72,2.608,2.608,0,0,1,.86,2.12V-2.6a2.608,2.608,0,0,1-.86,2.12A3.22,3.22,0,0,1,206.64.24Zm0-23.48a3.652,3.652,0,0,1-2.52-.82,2.824,2.824,0,0,1-.92-2.22,2.763,2.763,0,0,1,.92-2.2,3.711,3.711,0,0,1,2.52-.8,3.668,3.668,0,0,1,2.5.82,2.75,2.75,0,0,1,.94,2.18,2.824,2.824,0,0,1-.92,2.22A3.652,3.652,0,0,1,206.64-23.24Z" transform="translate(255 92)" fill="#343a40"/><path d="M11.632-1.52a1.286,1.286,0,0,1,.128.512.97.97,0,0,1-.36.76,1.222,1.222,0,0,1-.824.312A1.078,1.078,0,0,1,10-.1a1.063,1.063,0,0,1-.416-.5L8.736-2.5H3.312L2.464-.608a1.08,1.08,0,0,1-.408.5,1.066,1.066,0,0,1-.584.168A1.252,1.252,0,0,1,.64-.248a.961.961,0,0,1-.368-.76A1.286,1.286,0,0,1,.4-1.52l4.32-9.072a1.252,1.252,0,0,1,.528-.584,1.5,1.5,0,0,1,.752-.2,1.483,1.483,0,0,1,.768.208,1.416,1.416,0,0,1,.544.576ZM4.16-4.384H7.888L6.032-8.544ZM14.16.1a1.312,1.312,0,0,1-.872-.288,1.043,1.043,0,0,1-.344-.848V-6.88a1.032,1.032,0,0,1,.352-.848,1.32,1.32,0,0,1,.864-.288,1.288,1.288,0,0,1,.856.288,1.043,1.043,0,0,1,.344.848v5.84a1.043,1.043,0,0,1-.344.848A1.288,1.288,0,0,1,14.16.1Zm0-9.392a1.461,1.461,0,0,1-1.008-.328,1.13,1.13,0,0,1-.368-.888,1.105,1.105,0,0,1,.368-.88,1.484,1.484,0,0,1,1.008-.32,1.467,1.467,0,0,1,1,.328,1.1,1.1,0,0,1,.376.872,1.13,1.13,0,0,1-.368.888A1.461,1.461,0,0,1,14.16-9.3Zm9.408,1.28a1.255,1.255,0,0,1,.888.3,1.079,1.079,0,0,1,.328.832v5.872a1.016,1.016,0,0,1-.344.8,1.291,1.291,0,0,1-.888.3,1.138,1.138,0,0,1-.816-.288,1.008,1.008,0,0,1-.3-.768v-.16a2.486,2.486,0,0,1-.968.928,2.828,2.828,0,0,1-1.352.32A2.8,2.8,0,0,1,17.9-.7a3.667,3.667,0,0,1-.728-2.488v-3.7a1.079,1.079,0,0,1,.328-.832,1.255,1.255,0,0,1,.888-.3,1.226,1.226,0,0,1,.88.3,1.093,1.093,0,0,1,.32.832v3.744a1.542,1.542,0,0,0,.3,1.04,1.142,1.142,0,0,0,.9.336,1.48,1.48,0,0,0,1.144-.48,1.8,1.8,0,0,0,.44-1.264V-6.88a1.093,1.093,0,0,1,.32-.832A1.226,1.226,0,0,1,23.568-8.016Zm7.44,6.352a1.125,1.125,0,0,1,.7.24.789.789,0,0,1,.224.608.787.787,0,0,1-.368.7A1.71,1.71,0,0,1,30.512.08L30.064.048a2.662,2.662,0,0,1-2.8-2.928V-6.048h-.64a1.2,1.2,0,0,1-.8-.232.825.825,0,0,1-.272-.664.844.844,0,0,1,.272-.68,1.2,1.2,0,0,1,.8-.232h.64V-9.1a1.079,1.079,0,0,1,.328-.832,1.255,1.255,0,0,1,.888-.3,1.226,1.226,0,0,1,.88.3,1.093,1.093,0,0,1,.32.832v1.248H30.8q1.088,0,1.088.912a.825.825,0,0,1-.272.664,1.231,1.231,0,0,1-.816.232H29.68V-2.7a1.053,1.053,0,0,0,.224.728.938.938,0,0,0,.656.28Zm5.6,1.792a4.585,4.585,0,0,1-2.192-.5A3.534,3.534,0,0,1,32.96-1.8a4.388,4.388,0,0,1-.512-2.168,4.388,4.388,0,0,1,.512-2.168,3.484,3.484,0,0,1,1.456-1.416,4.646,4.646,0,0,1,2.192-.5,4.646,4.646,0,0,1,2.192.5,3.484,3.484,0,0,1,1.456,1.416,4.388,4.388,0,0,1,.512,2.168A4.388,4.388,0,0,1,40.256-1.8,3.534,3.534,0,0,1,38.8-.376,4.585,4.585,0,0,1,36.608.128Zm0-1.84q1.76,0,1.76-2.256a2.65,2.65,0,0,0-.456-1.7,1.585,1.585,0,0,0-1.3-.56q-1.76,0-1.76,2.256T36.608-1.712Zm14.96-6.336a3.206,3.206,0,0,1,1.8.52A3.45,3.45,0,0,1,54.6-6.072a5,5,0,0,1,.44,2.152,4.9,4.9,0,0,1-.44,2.136A3.324,3.324,0,0,1,53.376-.368a3.309,3.309,0,0,1-1.808.5A3.16,3.16,0,0,1,50.12-.2a2.388,2.388,0,0,1-1-.92V1.9a.983.983,0,0,1-.32.768,1.22,1.22,0,0,1-.848.288,1.315,1.315,0,0,1-.9-.3,1.016,1.016,0,0,1-.344-.8V-6.88a1.085,1.085,0,0,1,.328-.824,1.213,1.213,0,0,1,.872-.312,1.185,1.185,0,0,1,.864.312,1.1,1.1,0,0,1,.32.824v.128A2.449,2.449,0,0,1,50.1-7.7,3.121,3.121,0,0,1,51.568-8.048Zm-.7,6.336a1.6,1.6,0,0,0,1.312-.568,2.535,2.535,0,0,0,.464-1.64,2.7,2.7,0,0,0-.464-1.688,1.562,1.562,0,0,0-1.312-.6,1.579,1.579,0,0,0-1.312.584,2.633,2.633,0,0,0-.464,1.672A2.6,2.6,0,0,0,49.552-2.3,1.579,1.579,0,0,0,50.864-1.712ZM59.488.128a7.9,7.9,0,0,1-1.7-.16,3.837,3.837,0,0,1-1.264-.512.979.979,0,0,1-.368-.384,1.138,1.138,0,0,1-.128-.544.926.926,0,0,1,.208-.616.643.643,0,0,1,.512-.248,1.265,1.265,0,0,1,.416.072q.208.072.432.168a5.743,5.743,0,0,0,.88.328,4.071,4.071,0,0,0,1.072.12,1.79,1.79,0,0,0,.872-.176.535.535,0,0,0,.312-.48.487.487,0,0,0-.136-.36,1.25,1.25,0,0,0-.5-.248q-.368-.112-1.168-.272A4.406,4.406,0,0,1,56.88-4a1.91,1.91,0,0,1-.624-1.52,2.081,2.081,0,0,1,.44-1.3,2.926,2.926,0,0,1,1.208-.9,4.359,4.359,0,0,1,1.728-.328,5.164,5.164,0,0,1,1.344.176,4.284,4.284,0,0,1,1.168.5.986.986,0,0,1,.5.9.982.982,0,0,1-.208.64.636.636,0,0,1-.512.256,1.874,1.874,0,0,1-.88-.288,4.653,4.653,0,0,0-.728-.312,2.579,2.579,0,0,0-.776-.1,1.445,1.445,0,0,0-.784.184.57.57,0,0,0-.288.5.554.554,0,0,0,.336.512,5.259,5.259,0,0,0,1.3.352,7,7,0,0,1,1.68.5,2.026,2.026,0,0,1,.88.744,2.158,2.158,0,0,1,.272,1.136,2.115,2.115,0,0,1-.936,1.808A4.208,4.208,0,0,1,59.488.128ZM65.52.1a1.312,1.312,0,0,1-.872-.288A1.043,1.043,0,0,1,64.3-1.04V-6.88a1.032,1.032,0,0,1,.352-.848,1.32,1.32,0,0,1,.864-.288,1.288,1.288,0,0,1,.856.288,1.043,1.043,0,0,1,.344.848v5.84a1.043,1.043,0,0,1-.344.848A1.288,1.288,0,0,1,65.52.1Zm0-9.392a1.461,1.461,0,0,1-1.008-.328,1.13,1.13,0,0,1-.368-.888,1.105,1.105,0,0,1,.368-.88,1.484,1.484,0,0,1,1.008-.32,1.467,1.467,0,0,1,1,.328,1.1,1.1,0,0,1,.376.872,1.13,1.13,0,0,1-.368.888A1.461,1.461,0,0,1,65.52-9.3ZM72.208.128a4.386,4.386,0,0,1-2.128-.5,3.393,3.393,0,0,1-1.4-1.408,4.48,4.48,0,0,1-.488-2.144,4.391,4.391,0,0,1,.52-2.168,3.611,3.611,0,0,1,1.464-1.448,4.492,4.492,0,0,1,2.176-.512,4.9,4.9,0,0,1,1.288.176,4.3,4.3,0,0,1,1.16.5.986.986,0,0,1,.5.9,1.128,1.128,0,0,1-.192.68.6.6,0,0,1-.512.264,1.066,1.066,0,0,1-.392-.072q-.184-.072-.488-.216a5.008,5.008,0,0,0-.6-.272,1.748,1.748,0,0,0-.6-.1,1.677,1.677,0,0,0-1.368.568,2.533,2.533,0,0,0-.472,1.656A2.567,2.567,0,0,0,71.144-2.3a1.667,1.667,0,0,0,1.368.576,1.82,1.82,0,0,0,.592-.088,4.723,4.723,0,0,0,.624-.28q.3-.144.48-.216a1,1,0,0,1,.384-.072.6.6,0,0,1,.5.272,1.131,1.131,0,0,1,.2.688.95.95,0,0,1-.5.88,4.252,4.252,0,0,1-1.184.5A5.536,5.536,0,0,1,72.208.128Zm8.048,0a4.585,4.585,0,0,1-2.192-.5A3.534,3.534,0,0,1,76.608-1.8,4.388,4.388,0,0,1,76.1-3.968a4.388,4.388,0,0,1,.512-2.168,3.484,3.484,0,0,1,1.456-1.416,4.646,4.646,0,0,1,2.192-.5,4.646,4.646,0,0,1,2.192.5A3.484,3.484,0,0,1,83.9-6.136a4.388,4.388,0,0,1,.512,2.168A4.388,4.388,0,0,1,83.9-1.8,3.534,3.534,0,0,1,82.448-.376,4.585,4.585,0,0,1,80.256.128Zm0-1.84q1.76,0,1.76-2.256a2.65,2.65,0,0,0-.456-1.7,1.585,1.585,0,0,0-1.3-.56q-1.76,0-1.76,2.256T80.256-1.712ZM87.1.1a1.312,1.312,0,0,1-.872-.288,1.043,1.043,0,0,1-.344-.848v-9.184a1.043,1.043,0,0,1,.344-.848,1.312,1.312,0,0,1,.872-.288,1.288,1.288,0,0,1,.856.288,1.043,1.043,0,0,1,.344.848V-1.04a1.043,1.043,0,0,1-.344.848A1.288,1.288,0,0,1,87.1.1Zm6.832.032a4.585,4.585,0,0,1-2.192-.5A3.534,3.534,0,0,1,90.288-1.8a4.388,4.388,0,0,1-.512-2.168,4.388,4.388,0,0,1,.512-2.168,3.484,3.484,0,0,1,1.456-1.416,4.646,4.646,0,0,1,2.192-.5,4.646,4.646,0,0,1,2.192.5,3.484,3.484,0,0,1,1.456,1.416A4.388,4.388,0,0,1,98.1-3.968,4.388,4.388,0,0,1,97.584-1.8,3.534,3.534,0,0,1,96.128-.376,4.585,4.585,0,0,1,93.936.128Zm0-1.84q1.76,0,1.76-2.256a2.65,2.65,0,0,0-.456-1.7,1.585,1.585,0,0,0-1.3-.56q-1.76,0-1.76,2.256T93.936-1.712Zm12.448-6.3a1.213,1.213,0,0,1,.872.312,1.085,1.085,0,0,1,.328.824V-.848a3.642,3.642,0,0,1-1.1,2.88,4.74,4.74,0,0,1-3.232.976,6.018,6.018,0,0,1-2.944-.64,1.3,1.3,0,0,1-.448-.392.9.9,0,0,1-.16-.52A1.064,1.064,0,0,1,99.888.8.608.608,0,0,1,100.4.544a1.48,1.48,0,0,1,.416.072q.24.072.5.168a9.507,9.507,0,0,0,.944.3,3.688,3.688,0,0,0,.928.112A2.16,2.16,0,0,0,104.7.736a1.84,1.84,0,0,0,.5-1.408v-.864a2.374,2.374,0,0,1-1.008.96,3.192,3.192,0,0,1-1.5.352,3.434,3.434,0,0,1-1.816-.48,3.288,3.288,0,0,1-1.24-1.368,4.506,4.506,0,0,1-.448-2.056,4.506,4.506,0,0,1,.448-2.056,3.342,3.342,0,0,1,1.24-1.376,3.391,3.391,0,0,1,1.816-.488,3.169,3.169,0,0,1,1.48.344,2.438,2.438,0,0,1,1.016.952v-.16a1.034,1.034,0,0,1,.328-.808A1.252,1.252,0,0,1,106.384-8.016Zm-2.992,5.952a1.654,1.654,0,0,0,1.32-.544,2.245,2.245,0,0,0,.472-1.52,2.277,2.277,0,0,0-.472-1.528,1.643,1.643,0,0,0-1.32-.552,1.667,1.667,0,0,0-1.328.552,2.252,2.252,0,0,0-.48,1.528,2.221,2.221,0,0,0,.48,1.52A1.679,1.679,0,0,0,103.392-2.064ZM110.656.1a1.312,1.312,0,0,1-.872-.288,1.043,1.043,0,0,1-.344-.848V-6.88a1.032,1.032,0,0,1,.352-.848,1.32,1.32,0,0,1,.864-.288,1.288,1.288,0,0,1,.856.288,1.043,1.043,0,0,1,.344.848v5.84a1.043,1.043,0,0,1-.344.848A1.288,1.288,0,0,1,110.656.1Zm0-9.392a1.461,1.461,0,0,1-1.008-.328,1.13,1.13,0,0,1-.368-.888,1.105,1.105,0,0,1,.368-.88,1.484,1.484,0,0,1,1.008-.32,1.467,1.467,0,0,1,1,.328,1.1,1.1,0,0,1,.376.872,1.13,1.13,0,0,1-.368.888A1.461,1.461,0,0,1,110.656-9.3ZM117.344.128a4.386,4.386,0,0,1-2.128-.5,3.393,3.393,0,0,1-1.4-1.408,4.48,4.48,0,0,1-.488-2.144,4.391,4.391,0,0,1,.52-2.168,3.611,3.611,0,0,1,1.464-1.448,4.492,4.492,0,0,1,2.176-.512,4.9,4.9,0,0,1,1.288.176,4.3,4.3,0,0,1,1.16.5.986.986,0,0,1,.5.9,1.128,1.128,0,0,1-.192.68.6.6,0,0,1-.512.264,1.066,1.066,0,0,1-.392-.072q-.184-.072-.488-.216a5.008,5.008,0,0,0-.6-.272,1.748,1.748,0,0,0-.6-.1,1.677,1.677,0,0,0-1.368.568,2.533,2.533,0,0,0-.472,1.656A2.567,2.567,0,0,0,116.28-2.3a1.667,1.667,0,0,0,1.368.576,1.82,1.82,0,0,0,.592-.088,4.723,4.723,0,0,0,.624-.28q.3-.144.48-.216a1,1,0,0,1,.384-.072.6.6,0,0,1,.5.272,1.131,1.131,0,0,1,.2.688.95.95,0,0,1-.5.88,4.252,4.252,0,0,1-1.184.5A5.536,5.536,0,0,1,117.344.128Zm8.048,0a4.585,4.585,0,0,1-2.192-.5A3.534,3.534,0,0,1,121.744-1.8a4.388,4.388,0,0,1-.512-2.168,4.388,4.388,0,0,1,.512-2.168A3.484,3.484,0,0,1,123.2-7.552a4.646,4.646,0,0,1,2.192-.5,4.646,4.646,0,0,1,2.192.5,3.484,3.484,0,0,1,1.456,1.416,4.388,4.388,0,0,1,.512,2.168A4.388,4.388,0,0,1,129.04-1.8a3.534,3.534,0,0,1-1.456,1.424A4.585,4.585,0,0,1,125.392.128Zm0-1.84q1.76,0,1.76-2.256a2.65,2.65,0,0,0-.456-1.7,1.585,1.585,0,0,0-1.3-.56q-1.76,0-1.76,2.256T125.392-1.712Zm6.576-.944a1.271,1.271,0,0,1,1.024.456,2,2,0,0,1,.384,1.32,4.07,4.07,0,0,1-1.2,2.912.719.719,0,0,1-.512.24.674.674,0,0,1-.472-.184.578.578,0,0,1-.2-.44.569.569,0,0,1,.176-.416,2.722,2.722,0,0,0,.7-1.216,1.332,1.332,0,0,1-.88-.4,1.245,1.245,0,0,1-.336-.9,1.365,1.365,0,0,1,.376-.984A1.244,1.244,0,0,1,131.968-2.656Zm16.96,1.072a1.222,1.222,0,0,1,.24.688.9.9,0,0,1-.36.736,1.305,1.305,0,0,1-.84.288,1.309,1.309,0,0,1-.592-.144,1.2,1.2,0,0,1-.48-.448L144.784-3.6a1.891,1.891,0,0,0-.576-.6,1.462,1.462,0,0,0-.768-.184h-1.3v3.232a1.249,1.249,0,0,1-.328.912,1.184,1.184,0,0,1-.888.336,1.232,1.232,0,0,1-.912-.336,1.232,1.232,0,0,1-.336-.912v-8.96a1.169,1.169,0,0,1,.3-.864,1.169,1.169,0,0,1,.864-.3h4.016a4.5,4.5,0,0,1,3,.872,3.139,3.139,0,0,1,1.016,2.52,3.26,3.26,0,0,1-.72,2.16,3.457,3.457,0,0,1-2.032,1.136,2.1,2.1,0,0,1,.856.376,3.221,3.221,0,0,1,.728.808ZM144.5-6.272a2.533,2.533,0,0,0,1.552-.376,1.4,1.4,0,0,0,.48-1.176,1.4,1.4,0,0,0-.48-1.184,2.575,2.575,0,0,0-1.552-.368h-2.384v3.1Zm12.512,3.936a.63.63,0,0,1,.52.256,1.034,1.034,0,0,1,.2.656.87.87,0,0,1-.16.5,1.3,1.3,0,0,1-.448.392,5.732,5.732,0,0,1-1.264.472,5.392,5.392,0,0,1-1.328.184,4.766,4.766,0,0,1-2.232-.5,3.473,3.473,0,0,1-1.464-1.416,4.388,4.388,0,0,1-.512-2.168,4.445,4.445,0,0,1,.5-2.128,3.636,3.636,0,0,1,1.376-1.448,3.856,3.856,0,0,1,2-.52,3.659,3.659,0,0,1,1.88.472,3.222,3.222,0,0,1,1.256,1.344,4.407,4.407,0,0,1,.448,2.04.769.769,0,0,1-.168.536.607.607,0,0,1-.472.184h-4.48a2.133,2.133,0,0,0,.576,1.368,1.9,1.9,0,0,0,1.328.424,2.855,2.855,0,0,0,.832-.112,8.039,8.039,0,0,0,.816-.3q.224-.1.432-.168A1.144,1.144,0,0,1,157.008-2.336Zm-2.752-4.048a1.448,1.448,0,0,0-1.1.44,2.088,2.088,0,0,0-.5,1.272h3.088a2.088,2.088,0,0,0-.424-1.28A1.335,1.335,0,0,0,154.256-6.384ZM160.448.1a1.312,1.312,0,0,1-.872-.288,1.043,1.043,0,0,1-.344-.848V-6.88a1.032,1.032,0,0,1,.352-.848,1.32,1.32,0,0,1,.864-.288,1.288,1.288,0,0,1,.856.288,1.043,1.043,0,0,1,.344.848v5.84a1.043,1.043,0,0,1-.344.848A1.288,1.288,0,0,1,160.448.1Zm0-9.392a1.461,1.461,0,0,1-1.008-.328,1.13,1.13,0,0,1-.368-.888,1.105,1.105,0,0,1,.368-.88,1.484,1.484,0,0,1,1.008-.32,1.467,1.467,0,0,1,1,.328,1.1,1.1,0,0,1,.376.872,1.13,1.13,0,0,1-.368.888A1.461,1.461,0,0,1,160.448-9.3Zm10.464,7.424a1.081,1.081,0,0,1,.368.8,1.142,1.142,0,0,1-.328.8,1.01,1.01,0,0,1-.76.352,1.093,1.093,0,0,1-.768-.336L165.92-3.5v2.448a1.043,1.043,0,0,1-.344.848,1.288,1.288,0,0,1-.856.288,1.312,1.312,0,0,1-.872-.288,1.043,1.043,0,0,1-.344-.848v-9.168a1.043,1.043,0,0,1,.344-.848,1.312,1.312,0,0,1,.872-.288,1.288,1.288,0,0,1,.856.288,1.043,1.043,0,0,1,.344.848V-4.5l3.2-3.152A1.086,1.086,0,0,1,169.9-8a1.087,1.087,0,0,1,.784.328,1.049,1.049,0,0,1,.336.776,1.1,1.1,0,0,1-.368.784L168.528-4.08ZM173.648.1a1.312,1.312,0,0,1-.872-.288,1.043,1.043,0,0,1-.344-.848V-6.88a1.032,1.032,0,0,1,.352-.848,1.32,1.32,0,0,1,.864-.288,1.288,1.288,0,0,1,.856.288,1.043,1.043,0,0,1,.344.848v5.84a1.043,1.043,0,0,1-.344.848A1.288,1.288,0,0,1,173.648.1Zm0-9.392a1.461,1.461,0,0,1-1.008-.328,1.13,1.13,0,0,1-.368-.888,1.105,1.105,0,0,1,.368-.88,1.484,1.484,0,0,1,1.008-.32,1.467,1.467,0,0,1,1,.328,1.1,1.1,0,0,1,.376.872,1.13,1.13,0,0,1-.368.888A1.461,1.461,0,0,1,173.648-9.3Zm4.16,6.64a1.271,1.271,0,0,1,1.024.456,2,2,0,0,1,.384,1.32,4.07,4.07,0,0,1-1.2,2.912.719.719,0,0,1-.512.24.674.674,0,0,1-.472-.184.578.578,0,0,1-.2-.44.569.569,0,0,1,.176-.416,2.722,2.722,0,0,0,.7-1.216,1.332,1.332,0,0,1-.88-.4,1.245,1.245,0,0,1-.336-.9,1.365,1.365,0,0,1,.376-.984A1.244,1.244,0,0,1,177.808-2.656ZM186.688,0a1.169,1.169,0,0,1-.864-.3,1.169,1.169,0,0,1-.3-.864v-8.96a1.211,1.211,0,0,1,.336-.9,1.232,1.232,0,0,1,.912-.336,1.232,1.232,0,0,1,.912.336,1.211,1.211,0,0,1,.336.9v8.1h4.1q1.168,0,1.168,1.024Q193.28,0,192.112,0Zm8.864.1a1.312,1.312,0,0,1-.872-.288,1.043,1.043,0,0,1-.344-.848V-6.88a1.032,1.032,0,0,1,.352-.848,1.32,1.32,0,0,1,.864-.288,1.288,1.288,0,0,1,.856.288,1.043,1.043,0,0,1,.344.848v5.84a1.043,1.043,0,0,1-.344.848A1.288,1.288,0,0,1,195.552.1Zm0-9.392a1.461,1.461,0,0,1-1.008-.328,1.13,1.13,0,0,1-.368-.888,1.105,1.105,0,0,1,.368-.88,1.484,1.484,0,0,1,1.008-.32,1.467,1.467,0,0,1,1,.328,1.1,1.1,0,0,1,.376.872,1.13,1.13,0,0,1-.368.888A1.461,1.461,0,0,1,195.552-9.3Zm7.328-.224a1.281,1.281,0,0,0-.944.4,1.527,1.527,0,0,0-.288.992v.272h1.12q1.088,0,1.088.912,0,.9-1.088.9h-1.12v4.992a1.043,1.043,0,0,1-.344.848,1.288,1.288,0,0,1-.856.288,1.312,1.312,0,0,1-.872-.288,1.043,1.043,0,0,1-.344-.848V-6.048h-.64q-1.072,0-1.072-.9,0-.912,1.072-.912h.64a3.336,3.336,0,0,1,.848-2.416,3.474,3.474,0,0,1,2.336-.992l.416-.032.288-.016q1.1,0,1.1.848,0,.832-.928.912Zm7.968,7.184a.63.63,0,0,1,.52.256,1.034,1.034,0,0,1,.2.656.87.87,0,0,1-.16.5,1.3,1.3,0,0,1-.448.392,5.732,5.732,0,0,1-1.264.472,5.392,5.392,0,0,1-1.328.184,4.766,4.766,0,0,1-2.232-.5,3.473,3.473,0,0,1-1.464-1.416,4.388,4.388,0,0,1-.512-2.168,4.445,4.445,0,0,1,.5-2.128,3.636,3.636,0,0,1,1.376-1.448,3.856,3.856,0,0,1,2-.52,3.659,3.659,0,0,1,1.88.472,3.222,3.222,0,0,1,1.256,1.344,4.407,4.407,0,0,1,.448,2.04.769.769,0,0,1-.168.536.607.607,0,0,1-.472.184H206.5a2.133,2.133,0,0,0,.576,1.368,1.9,1.9,0,0,0,1.328.424,2.855,2.855,0,0,0,.832-.112,8.039,8.039,0,0,0,.816-.3q.224-.1.432-.168A1.144,1.144,0,0,1,210.848-2.336ZM208.1-6.384a1.448,1.448,0,0,0-1.1.44,2.088,2.088,0,0,0-.5,1.272h3.088a2.088,2.088,0,0,0-.424-1.28A1.335,1.335,0,0,0,208.1-6.384ZM222.912.144A5.827,5.827,0,0,1,220-.56a4.738,4.738,0,0,1-1.92-2.016,6.653,6.653,0,0,1-.672-3.072,6.6,6.6,0,0,1,.672-3.064A4.748,4.748,0,0,1,220-10.72a5.827,5.827,0,0,1,2.912-.7,5.815,5.815,0,0,1,3.616,1.152,1.2,1.2,0,0,1,.336.384,1.068,1.068,0,0,1,.1.48,1.119,1.119,0,0,1-.232.712.7.7,0,0,1-.568.3,1.241,1.241,0,0,1-.392-.056,1.535,1.535,0,0,1-.376-.2,5.379,5.379,0,0,0-1.184-.6,3.622,3.622,0,0,0-1.168-.184,2.808,2.808,0,0,0-2.312.952,4.421,4.421,0,0,0-.776,2.84q0,3.808,3.088,3.808a3.379,3.379,0,0,0,1.12-.184,7.091,7.091,0,0,0,1.232-.6,2.3,2.3,0,0,1,.4-.2,1.112,1.112,0,0,1,.368-.056.7.7,0,0,1,.568.3,1.119,1.119,0,0,1,.232.712,1.048,1.048,0,0,1-.1.488,1.181,1.181,0,0,1-.328.376A5.815,5.815,0,0,1,222.912.144ZM232,.128a4.585,4.585,0,0,1-2.192-.5A3.534,3.534,0,0,1,228.352-1.8a4.388,4.388,0,0,1-.512-2.168,4.388,4.388,0,0,1,.512-2.168,3.484,3.484,0,0,1,1.456-1.416,4.646,4.646,0,0,1,2.192-.5,4.646,4.646,0,0,1,2.192.5,3.484,3.484,0,0,1,1.456,1.416,4.388,4.388,0,0,1,.512,2.168,4.388,4.388,0,0,1-.512,2.168,3.534,3.534,0,0,1-1.456,1.424A4.585,4.585,0,0,1,232,.128Zm0-1.84q1.76,0,1.76-2.256a2.65,2.65,0,0,0-.456-1.7,1.585,1.585,0,0,0-1.3-.56q-1.76,0-1.76,2.256T232-1.712Zm9.168-6.336a3.466,3.466,0,0,1,2.56.84,3.516,3.516,0,0,1,.832,2.568v3.616a1.1,1.1,0,0,1-.3.824,1.164,1.164,0,0,1-.848.3,1.114,1.114,0,0,1-.824-.312,1.093,1.093,0,0,1-.312-.808v-.112a1.884,1.884,0,0,1-.8.928,2.5,2.5,0,0,1-1.312.336,3.226,3.226,0,0,1-1.448-.32,2.536,2.536,0,0,1-1.024-.9,2.292,2.292,0,0,1-.376-1.28,1.977,1.977,0,0,1,.44-1.36,2.629,2.629,0,0,1,1.416-.72,12.508,12.508,0,0,1,2.672-.224h.416V-4.96a1.361,1.361,0,0,0-.3-.976,1.333,1.333,0,0,0-.984-.3,6.29,6.29,0,0,0-1.984.48,1.508,1.508,0,0,1-.624.176.693.693,0,0,1-.56-.248.975.975,0,0,1-.208-.648.907.907,0,0,1,.144-.528,1.331,1.331,0,0,1,.464-.384,5.183,5.183,0,0,1,1.368-.48A7.465,7.465,0,0,1,241.168-8.048Zm-.48,6.512a1.467,1.467,0,0,0,1.136-.472,1.742,1.742,0,0,0,.432-1.224V-3.5h-.272a5.467,5.467,0,0,0-1.816.208.753.753,0,0,0-.52.752.957.957,0,0,0,.3.728A1.04,1.04,0,0,0,240.688-1.536ZM250,.128a4.386,4.386,0,0,1-2.128-.5,3.393,3.393,0,0,1-1.4-1.408,4.48,4.48,0,0,1-.488-2.144,4.391,4.391,0,0,1,.52-2.168,3.611,3.611,0,0,1,1.464-1.448,4.492,4.492,0,0,1,2.176-.512,4.9,4.9,0,0,1,1.288.176,4.3,4.3,0,0,1,1.16.5.986.986,0,0,1,.5.9,1.128,1.128,0,0,1-.192.68.6.6,0,0,1-.512.264,1.066,1.066,0,0,1-.392-.072q-.184-.072-.488-.216a5.008,5.008,0,0,0-.6-.272,1.749,1.749,0,0,0-.6-.1,1.677,1.677,0,0,0-1.368.568,2.533,2.533,0,0,0-.472,1.656,2.567,2.567,0,0,0,.472,1.664,1.667,1.667,0,0,0,1.368.576,1.82,1.82,0,0,0,.592-.088,4.723,4.723,0,0,0,.624-.28q.3-.144.48-.216a1,1,0,0,1,.384-.072.6.6,0,0,1,.5.272,1.131,1.131,0,0,1,.2.688.95.95,0,0,1-.5.88,4.252,4.252,0,0,1-1.184.5A5.535,5.535,0,0,1,250,.128Zm9.248-8.176q2.736,0,2.736,3.312v3.7a1.079,1.079,0,0,1-.328.832,1.255,1.255,0,0,1-.888.3,1.226,1.226,0,0,1-.88-.3,1.093,1.093,0,0,1-.32-.832V-4.768a1.575,1.575,0,0,0-.3-1.048,1.149,1.149,0,0,0-.92-.344,1.589,1.589,0,0,0-1.208.48,1.782,1.782,0,0,0-.456,1.28v3.36a1.093,1.093,0,0,1-.32.832,1.226,1.226,0,0,1-.88.3,1.255,1.255,0,0,1-.888-.3,1.079,1.079,0,0,1-.328-.832v-9.216a1.016,1.016,0,0,1,.344-.8,1.315,1.315,0,0,1,.9-.3,1.22,1.22,0,0,1,.848.288.983.983,0,0,1,.32.768v3.488a2.667,2.667,0,0,1,1.072-.92A3.423,3.423,0,0,1,259.248-8.048Z" transform="translate(255 116)" fill="#6c757d"/></g></svg>