<svg xmlns="http://www.w3.org/2000/svg" width="343" height="70" viewBox="0 0 343 70"><g transform="translate(-175 -52)"><g transform="translate(10 15)"><path d="M352.045,205.275c4.224,8.852,10.334,16.269,16.989,23.272,3.758,3.955,4.376,8,1.886,11.936-3.243,5.125-11.587,5.51-15.562.928-7.186-8.281-7.964-17.978-6.293-28.229a83.326,83.326,0,0,1,2.132-8.1C351.479,205.148,351.762,205.213,352.045,205.275Z" transform="translate(-183.323 -142.857)" fill="#1fa7da" fill-rule="evenodd"/><path d="M361.7,242.516c6.042-8.974,9.018-18.407,11.951-27.858,1.522-4.9,5.769-8,9.9-6.719,4.932,1.536,8.561,5.019,7.784,11.273-.771,6.187-4.382,10.84-8.887,14.652a36.415,36.415,0,0,1-15.825,8.025C365.182,242.2,363.683,242.272,361.7,242.516Z" transform="translate(-166.446 -139.516)" fill="#73bfa6" fill-rule="evenodd"/><path d="M393.368,212.573a85.744,85.744,0,0,0-28.384,3.3c-6.262,1.7-10.68-1.9-11.476-5.648-1.309-6.132,2.11-11.729,7.971-12.948,9.124-1.9,16.926,1.449,24.092,6.65,3.078,2.237,5.653,5.185,8.457,7.811Z" transform="translate(-177.136 -153.737)" fill="#957aca" fill-rule="evenodd"/></g><g transform="translate(10 12)"><text transform="translate(245 80)" fill="#343a40" font-size="40" font-family="Nunito-ExtraBold, Nunito" font-weight="800"><tspan x="0" y="0">Licia Atzori</tspan></text><text transform="translate(245 104)" fill="#6c757d" font-size="16" font-family="Nunito-ExtraBold, Nunito" font-weight="800"><tspan x="0" y="0">Aiuto psicologico, Reiki, Life Coach</tspan></text></g></g></svg>